<svg xmlns="http://www.w3.org/2000/svg" xmlns:xlink="http://www.w3.org/1999/xlink" xmlns:inkscape="http://www.inkscape.org/namespaces/inkscape" version="1.1" width="511.68" height="656.16006" viewBox="0 0 511.68 656.16006">
<defs>
<clipPath id="clip_1">
<path transform="matrix(1,0,0,-1,-179.04,961.32)" d="M179.04 305.16H690.72V961.32H179.04Z" clip-rule="evenodd"/>
</clipPath>
<clipPath id="clip_2">
<path transform="matrix(1,0,0,-1,-179.04,961.32)" d="M0 1418.765H841.89V0H0Z"/>
</clipPath>
</defs>
<g clip-path="url(#clip_1)">
<g inkscape:groupmode="layer" inkscape:label="Camada 1">
</g>
<g inkscape:groupmode="layer" inkscape:label="Camada 2">
<g clip-path="url(#clip_2)">
<path transform="matrix(1,0,0,-1,468.2345,543.615)" d="M0 0C0 0-74.552-5.083-109.286 40.665-109.286 40.665-127.924 4.236-110.133-49.983-110.133-49.983-149.104-17.791-127.924 55.914-115.086 100.591-129.029 165.81-177.091 220.632-184.778 209.281-190.848 200.273-194.68 194.533-195.238 193.684-195.771 192.788-196.255 191.919-198.322 148.574-234.228 113.945-278.076 113.945-323.247 113.945-359.997 150.695-359.997 195.866-359.997 216.47-352.335 235.306-339.732 249.717-347.343 259.288-353.603 268.666-358.676 277.787-389.536 251.6-428.404 206.107-443.922 137.243-443.922 137.243-308.373 88.954-215.183-88.106-215.183-88.106 19.027-80.497 19.474-83.017 19.322-81.036 17.079-27.652 0 0" fill="#171417"/>
<path transform="matrix(1,0,0,-1,267.37513,320.41914)" d="M0 0C-11.28 31.771-41.626 54.591-77.216 54.591-94.178 54.591-109.952 49.409-123.038 40.545-63.48 60.527-39.546 19.662-39.546 19.662-82.381 47.187-115.748 17.011-115.748 17.011L-115.767 17.018C-116.368 16.06-117.098 15.098-118.039 14.146-118.039 14.146-118.034 14.135-118.033 14.134-126.086 6.437-132.063-3.61-134.746-15.277-142.057-47.063-122.217-78.757-90.431-86.068-85.978-87.093-81.522-87.584-77.14-87.584-50.239-87.584-25.926-69.086-19.639-41.753-19.07-39.276-18.669-36.8-18.424-34.337H-18.422V-34.321C-18.351-33.603-18.296-32.887-18.251-32.172-17.277-26.14-12.413-18.525-11.397-16.986-9.271-13.801-4.412-6.587 .013-.025Z" fill="#0e817f"/>
<path transform="matrix(1,0,0,-1,248.92842,347.74879)" d="M0 0C0-5.995-.904-11.781-2.58-17.234-3.136-14.448-4.485-12.38-6.274-10.805-13.095-4.804-24.322-9.872-25.226-10.403-27.674-11.357-34.728-14.503-47.124-15.003-64.208-15.693-75.41-10.731-85.44 1.946-90.818 8.743-94.373 15.034-94.243 23.193-94.051 35.308-85.394 50.099-58.77 55.884-47.419 58.35-39.292 56.657-29.258 50.806-11.775 40.613 0 21.656 0 0" fill="#0e817f"/>
<path transform="matrix(1,0,0,-1,190.1585,406.51875)" d="M0 0C-32.406 0-58.769 26.364-58.769 58.77-58.769 91.175-32.406 117.539 0 117.539 1.357 117.539 2.702 117.489 4.036 117.398-10.981 115.455-22.248 111.036-29.51 104.225-35.726 98.395-38.95 90.95-39.09 82.096-39.225 73.595-36.221 65.023-30.632 57.957-17.737 41.66-.602 38.833 11.498 39.331 24.563 39.869 34.744 44.31 34.845 44.355L34.925 44.396C35.036 44.462 47.147 49.771 51.592 46.787 54.511 44.826 55.011 40.951 55.037 38.16 46.67 15.891 25.157 0 0 0" fill="#16c3c0"/>
<path transform="matrix(1,0,0,-1,190.1588,265.82814)" d="M0 0C35.59 0 65.937-22.82 77.216-54.591 120.245 9.116 235.13 177.174 265.376 217.749 265.376 217.749 245.035 230.591 207.868 229.732 163.181 228.699 130.75 138.676 107.586 95.564 107.586 95.564 132.12 179.386 156.207 240.949 156.207 240.949 54.952 260.729 51.271 90.581 51.271 90.581 45.144 171.775 45.857 221.332 45.857 221.332-41.912 196.669-3.704 56.806-3.704 56.806-35.78 121.61-48.367 147.422-48.367 147.422-118.865 78.739-45.822-14.046-32.736-5.183-16.962 0 0 0" fill="#16c3c0"/>
</g>
</g>
</g>
</svg>
