<svg xmlns="http://www.w3.org/2000/svg" xmlns:xlink="http://www.w3.org/1999/xlink" xmlns:inkscape="http://www.inkscape.org/namespaces/inkscape" version="1.1" width="667.68008" height="251.52002" viewBox="0 0 667.68008 251.52002">
<defs>
<clipPath id="clip_1">
<path transform="matrix(1,0,0,-1,-92.16,795.72006)" d="M92.16 544.2H759.84V795.72006H92.16Z" clip-rule="evenodd"/>
</clipPath>
<clipPath id="clip_2">
<path transform="matrix(1,0,0,-1,-92.16,795.72006)" d="M0 1418.765H841.89V0H0Z"/>
</clipPath>
</defs>
<g clip-path="url(#clip_1)">
<g inkscape:groupmode="layer" inkscape:label="Camada 1">
</g>
<g inkscape:groupmode="layer" inkscape:label="Camada 2">
<path transform="matrix(1,0,0,-1,190.38459,151.82105)" d="M0 0H19.703V-7.032H-7.846V34.35H0Z" fill="#f9bd32"/>
<g clip-path="url(#clip_2)">
<path transform="matrix(1,0,0,-1,217.0325,155.3952)" d="M0 0C-3.081 2.887-4.621 6.926-4.621 12.118V37.924H3.226V12.061C3.226 8.922 4.039 6.539 5.667 4.911 7.294 3.284 9.638 2.471 12.699 2.471 15.76 2.471 18.104 3.284 19.732 4.911 21.359 6.539 22.173 8.922 22.173 12.061V37.924H30.019V12.118C30.019 6.849 28.489 2.79 25.428-.058 22.367-2.906 18.124-4.33 12.699-4.33 7.313-4.33 3.08-2.887 0 0" fill="#f9bd32"/>
<path transform="matrix(1,0,0,-1,-92.16,795.72006)" d="M345.371 678.249H353.217V636.867H345.371Z" fill="#f9bd32"/>
<path transform="matrix(1,0,0,-1,299.4744,151.82105)" d="M0 0V-7.032H-33.536V-.639L-17.959 18.482C-14.472 22.706-11.954 25.689-10.404 27.434-17.533 27.355-21.524 27.317-22.376 27.317H-32.722V34.35H-.349V28.015L-16.042 8.835C-19.529 4.611-22.047 1.628-23.597-.116-16.468-.038-12.477 0-11.624 0Z" fill="#f9bd32"/>
<path transform="matrix(1,0,0,-1,319.5535,156.00562)" d="M0 0C-3.081 2.519-4.64 6.122-4.679 10.811H3.051C3.09 7.866 3.972 5.754 5.696 4.476 7.42 3.197 9.948 2.558 13.28 2.558 15.993 2.558 18.066 3.071 19.5 4.098 20.933 5.125 21.65 6.606 21.65 8.544 21.65 10.171 21.04 11.411 19.819 12.264 18.599 13.116 16.38 13.872 13.164 14.53L9.677 15.228C.804 16.894-3.633 21.079-3.633 27.782-3.633 31.347-2.276 34.185 .436 36.297 3.148 38.408 6.907 39.464 11.711 39.464 17.174 39.464 21.311 38.302 24.12 35.977 26.929 33.652 28.411 30.397 28.566 26.213H20.953C20.797 28.576 20.013 30.32 18.599 31.443 17.184 32.567 14.927 33.129 11.828 33.129 9.425 33.129 7.584 32.684 6.306 31.792 5.027 30.901 4.388 29.642 4.388 28.015 4.388 26.349 4.979 25.069 6.161 24.179 7.342 23.287 9.444 22.531 12.467 21.912L16.07 21.214C20.914 20.246 24.411 18.803 26.561 16.885 28.711 14.967 29.787 12.322 29.787 8.951 29.787 4.921 28.314 1.792 25.37-.436 22.425-2.664 18.317-3.777 13.048-3.777 7.43-3.777 3.08-2.519 0 0" fill="#f9bd32"/>
<path transform="matrix(1,0,0,-1,357.8245,153.91284)" d="M0 0C-3.72 3.913-5.58 9.163-5.58 15.751-5.58 22.376-3.739 27.646-.058 31.56 3.584 35.435 8.427 37.371 14.472 37.371 19.315 37.371 23.442 36.073 26.852 33.478 30.261 30.881 32.393 27.123 33.245 22.202H25.282C24.585 24.914 23.297 26.978 21.417 28.392 19.538 29.806 17.223 30.514 14.472 30.514 10.791 30.514 7.895 29.205 5.783 26.59 3.671 23.975 2.615 20.361 2.615 15.751 2.615 11.101 3.662 7.479 5.754 4.882 7.846 2.286 10.752 .988 14.472 .988 17.339 .988 19.8 1.84 21.854 3.545 23.907 5.25 25.147 7.613 25.573 10.636H33.419C32.916 5.366 30.862 1.298 27.259-1.569 23.694-4.437 19.432-5.87 14.472-5.87 8.505-5.87 3.681-3.914 0 0" fill="#f9bd32"/>
<path transform="matrix(1,0,0,-1,423.20829,117.471439)" d="M0 0H7.847V-41.382H0V-23.713H-19.237V-41.382H-27.084V0H-19.237V-16.622H0Z" fill="#f9bd32"/>
<path transform="matrix(1,0,0,-1,465.17118,117.471439)" d="M0 0H7.556V-41.382H-1.163L-12.671-22.958C-15.809-18.037-18.27-13.891-20.052-10.52-19.896-14.859-19.819-21.543-19.819-30.571V-41.382H-27.375V0H-18.657L-7.091-18.424C-3.643-24.004-1.201-28.149 .232-30.862 .077-25.089 0-18.404 0-10.811Z" fill="#f9bd32"/>
<path transform="matrix(1,0,0,-1,510.03843,124.50366)" d="M0 0H-22.667V-9.765H-2.15V-16.507H-22.667V-27.317H-.116V-34.35H-30.514V7.032H0Z" fill="#f9bd32"/>
<path transform="matrix(1,0,0,-1,-92.16,795.72006)" d="M607.021 678.249H614.868V636.867H607.021Z" fill="#f9bd32"/>
<path transform="matrix(1,0,0,-1,549.32546,136.53491)" d="M0 0H18.482V-22.318H12.786L11.682-16.855C8.698-21.117 4.204-23.248-1.802-23.248-7.77-23.248-12.555-21.272-16.158-17.32-19.762-13.368-21.563-8.137-21.563-1.627-21.563 4.882-19.723 10.133-16.042 14.123-12.36 18.037-7.382 19.993-1.104 19.993 4.088 19.993 8.408 18.676 11.856 16.041 15.267 13.406 17.319 9.822 18.018 5.289H9.938C9.357 7.73 8.088 9.648 6.132 11.043 4.175 12.438 1.782 13.136-1.047 13.136-4.844 13.136-7.847 11.818-10.055 9.183-12.264 6.548-13.368 2.944-13.368-1.627-13.368-6.199-12.244-9.803-9.997-12.438-7.75-15.072-4.669-16.39-.756-16.39 2.344-16.39 4.998-15.46 7.207-13.601 9.415-11.74 10.616-9.318 10.811-6.335H0Z" fill="#f9bd32"/>
<path transform="matrix(1,0,0,-1,604.4817,124.50366)" d="M0 0H-22.667V-9.765H-2.15V-16.507H-22.667V-27.317H-.116V-34.35H-30.514V7.032H0Z" fill="#f9bd32"/>
<path transform="matrix(1,0,0,-1,617.14968,136.47632)" d="M0 0H10.461C12.67 0 14.385 .552 15.604 1.656 16.825 2.761 17.436 4.358 17.436 6.451 17.436 8.427 16.806 9.938 15.547 10.984 14.287 12.03 12.495 12.554 10.171 12.554H0ZM24.934-17.553C24.972-19.529 25.398-21.137 26.212-22.377H18.133C17.436-21.215 17.067-19.567 17.029-17.437L16.854-12.903C16.738-10.385 16.167-8.632 15.14-7.644 14.113-6.655 12.477-6.161 10.229-6.161H0V-22.377H-7.847V19.005H10.926C15.537 19.005 19.121 17.959 21.679 15.866 24.236 13.774 25.515 10.926 25.515 7.322 25.515 2.363 23.209-.931 18.599-2.558 20.69-3.217 22.192-4.253 23.103-5.667 24.013-7.081 24.507-8.99 24.585-11.393Z" fill="#f9bd32"/>
<path transform="matrix(1,0,0,-1,431.2615,186.97925)" d="M0 0C1.295 0 2.318 .47 3.07 1.41 3.801 2.329 4.166 3.634 4.166 5.325 4.166 6.976 3.806 8.233 3.086 9.101 2.365 9.967 1.337 10.4 0 10.4-1.315 10.4-2.339 9.951-3.07 9.054-3.801 8.155-4.166 6.871-4.166 5.2-4.166 3.509-3.79 2.225-3.039 1.348-2.328 .449-1.315 0 0 0M6.234 11.372C7.528 9.826 8.176 7.77 8.176 5.2 8.176 2.652 7.528 .605 6.234-.939 4.918-2.485 3.153-3.258 .939-3.258-1.337-3.258-3.06-2.359-4.229-.563V-2.882H-8.02V19.423H-4.072V11.184C-2.924 12.834-1.253 13.658 .939 13.658 3.153 13.658 4.918 12.896 6.234 11.372" fill="#171417"/>
<path transform="matrix(1,0,0,-1,448.86503,180.24396)" d="M0 0H8.113C7.946 1.19 7.508 2.13 6.798 2.819 6.088 3.509 5.169 3.854 4.041 3.854 1.723 3.854 .376 2.568 0 0M12.061-2.757H-.031C.115-4.135 .548-5.174 1.269-5.874 1.989-6.573 2.955-6.923 4.166-6.923 5.962-6.923 7.194-6.15 7.863-4.604H11.653C11.235-6.255 10.358-7.565 9.021-8.536 7.686-9.508 6.057-9.993 4.135-9.993 1.733-9.993-.209-9.221-1.691-7.675-3.175-6.13-3.916-4.083-3.916-1.535-3.916 1.013-3.185 3.06-1.723 4.604-.24 6.15 1.691 6.923 4.072 6.923 6.516 6.923 8.458 6.119 9.899 4.511 11.34 2.903 12.061 .794 12.061-1.817Z" fill="#171417"/>
<path transform="matrix(1,0,0,-1,475.9617,186.39911)" d="M0 0C.772 .679 1.159 1.654 1.159 2.929V4.401C.783 4.066 .167 3.848-.689 3.743L-2.819 3.492C-3.863 3.367-4.61 3.122-5.059 2.757-5.508 2.391-5.732 1.863-5.732 1.175-5.732 .485-5.498-.053-5.027-.438-4.558-.825-3.885-1.019-3.007-1.019-1.775-1.019-.772-.679 0 0M1.691-3.462C1.504-3.128 1.357-2.47 1.253-1.488 .167-3.055-1.566-3.838-3.947-3.838-5.722-3.838-7.137-3.41-8.191-2.554-9.246-1.697-9.773-.507-9.773 1.018-9.773 3.963-7.706 5.644-3.571 6.062L-1.128 6.28C-.313 6.385 .271 6.578 .627 6.86 .981 7.142 1.159 7.564 1.159 8.129 1.159 8.818 .935 9.324 .485 9.648 .037 9.972-.721 10.134-1.785 10.134-2.934 10.134-3.759 9.94-4.26 9.554-4.762 9.168-5.054 8.505-5.138 7.564H-9.021C-8.792 11.24-6.369 13.078-1.754 13.078 2.736 13.078 4.981 11.46 4.981 8.223V-.392C4.981-1.812 5.2-2.835 5.639-3.462Z" fill="#171417"/>
<path transform="matrix(1,0,0,-1,489.0242,187.91876)" d="M0 0C-1.462 1.524-2.193 3.571-2.193 6.14-2.193 8.729-1.462 10.786 0 12.312 1.44 13.836 3.372 14.598 5.795 14.598 7.904 14.598 9.627 14.039 10.964 12.922 12.301 11.805 13.084 10.296 13.313 8.396H9.366C9.179 9.335 8.771 10.056 8.145 10.557 7.518 11.058 6.734 11.309 5.795 11.309 4.562 11.309 3.597 10.865 2.897 9.978 2.197 9.09 1.848 7.811 1.848 6.14 1.848 4.469 2.203 3.189 2.913 2.303 3.623 1.415 4.584 .971 5.795 .971 6.756 .971 7.565 1.237 8.223 1.77 8.881 2.303 9.282 3.07 9.429 4.072H13.376C13.167 2.13 12.374 .579 10.995-.58 9.617-1.738 7.884-2.318 5.795-2.318 3.414-2.318 1.482-1.546 0 0" fill="#171417"/>
<path transform="matrix(1,0,0,-1,521.33486,174.84052)" d="M0 0C1.014-1.013 1.52-2.448 1.52-4.307V-15.021H-2.428V-4.965C-2.428-2.918-3.44-1.895-5.466-1.895-6.469-1.895-7.319-2.255-8.02-2.976-8.719-3.696-9.068-4.693-9.068-5.967V-15.021H-13.016V7.284H-9.068V-1.018C-7.836 .674-6.197 1.52-4.15 1.52-2.396 1.52-1.013 1.014 0 0" fill="#171417"/>
<path transform="matrix(1,0,0,-1,548.75967,176.70386)" d="M0 0H-3.195V-8.74C-3.195-9.263-3.055-9.628-2.772-9.837-2.49-10.046-2.016-10.15-1.347-10.15H0V-13.157C-.856-13.241-1.546-13.282-2.067-13.282-3.822-13.282-5.101-12.953-5.905-12.296-6.709-11.638-7.111-10.589-7.111-9.147V0H-9.617V3.007H-7.111V7.706H-3.195V3.007H0Z" fill="#171417"/>
<path transform="matrix(1,0,0,-1,557.71768,180.24396)" d="M0 0H8.113C7.946 1.19 7.508 2.13 6.798 2.819 6.088 3.509 5.169 3.854 4.041 3.854 1.723 3.854 .376 2.568 0 0M12.061-2.757H-.031C.115-4.135 .548-5.174 1.269-5.874 1.989-6.573 2.955-6.923 4.166-6.923 5.962-6.923 7.194-6.15 7.863-4.604H11.653C11.235-6.255 10.358-7.565 9.021-8.536 7.686-9.508 6.057-9.993 4.135-9.993 1.733-9.993-.209-9.221-1.691-7.675-3.175-6.13-3.916-4.083-3.916-1.535-3.916 1.013-3.185 3.06-1.723 4.604-.24 6.15 1.691 6.923 4.072 6.923 6.516 6.923 8.458 6.119 9.899 4.511 11.34 2.903 12.061 .794 12.061-1.817Z" fill="#171417"/>
<path transform="matrix(1,0,0,-1,589.08877,174.84052)" d="M0 0C1.014-1.013 1.52-2.448 1.52-4.307V-15.021H-2.428V-4.965C-2.428-2.918-3.44-1.895-5.466-1.895-6.469-1.895-7.319-2.255-8.02-2.976-8.719-3.696-9.068-4.693-9.068-5.967V-15.021H-13.016V1.144H-9.193V-1.174C-7.962 .622-6.28 1.52-4.15 1.52-2.396 1.52-1.013 1.014 0 0" fill="#171417"/>
<path transform="matrix(1,0,0,-1,610.5769,174.84052)" d="M0 0C1.014-1.013 1.52-2.448 1.52-4.307V-15.021H-2.428V-4.965C-2.428-2.918-3.44-1.895-5.466-1.895-6.469-1.895-7.319-2.255-8.02-2.976-8.719-3.696-9.068-4.693-9.068-5.967V-15.021H-13.016V1.144H-9.193V-1.174C-7.962 .622-6.28 1.52-4.15 1.52-2.396 1.52-1.013 1.014 0 0" fill="#171417"/>
<path transform="matrix(1,0,0,-1,-92.16,795.72006)" d="M711.242 627.819H715.127V624.123H711.242ZM711.211 622.023H715.158V605.859H711.211Z" fill="#171417"/>
<path transform="matrix(1,0,0,-1,628.91677,184.72345)" d="M0 0H3.854C3.958-1.003 4.287-1.713 4.84-2.131 5.394-2.548 6.266-2.757 7.456-2.757 9.586-2.757 10.651-2.109 10.651-.814 10.651-.229 10.422 .219 9.962 .532 9.503 .846 8.678 1.106 7.487 1.315L5.639 1.629C2.109 2.214 .345 3.843 .345 6.516 .345 8.04 .93 9.236 2.1 10.103 3.269 10.969 4.919 11.402 7.049 11.402 11.664 11.402 14.045 9.575 14.191 5.921H10.463C10.422 6.881 10.119 7.565 9.555 7.973 8.991 8.38 8.155 8.583 7.049 8.583 5.169 8.583 4.229 7.957 4.229 6.704 4.229 6.161 4.438 5.737 4.856 5.435 5.273 5.132 5.963 4.897 6.924 4.73L8.96 4.417C10.923 4.062 12.349 3.498 13.235 2.726 14.123 1.952 14.567 .877 14.567-.501 14.567-2.131 13.94-3.384 12.688-4.261 11.435-5.138 9.67-5.576 7.394-5.576 2.674-5.576 .209-3.718 0 0" fill="#171417"/>
<path transform="matrix(1,0,0,-1,172.6594,198.05902)" d="M0 0C0 0-24.914-1.699-36.522 13.59-36.522 13.59-42.751 1.416-36.805-16.704-36.805-16.704-49.829-5.945-42.751 18.686-38.461 33.617-43.12 55.412-59.182 73.733-61.751 69.939-63.78 66.929-65.06 65.011-65.246 64.727-65.425 64.428-65.586 64.137-66.277 49.652-78.277 38.079-92.93 38.079-108.026 38.079-120.307 50.361-120.307 65.456-120.307 72.342-117.747 78.637-113.535 83.453-116.078 86.651-118.171 89.785-119.866 92.834-130.179 84.082-143.168 68.879-148.354 45.865-148.354 45.865-103.055 29.727-71.912-29.444-71.912-29.444 6.359-26.901 6.508-27.743 6.457-27.082 5.708-9.241 0 0" fill="#171417"/>
<path transform="matrix(1,0,0,-1,105.534198,123.46924)" d="M0 0C-3.77 10.618-13.911 18.244-25.805 18.244-31.473 18.244-36.745 16.512-41.118 13.55-21.214 20.227-13.216 6.571-13.216 6.571-27.531 15.769-38.682 5.685-38.682 5.685L-38.688 5.687C-38.889 5.367-39.133 5.046-39.447 4.727-39.447 4.727-39.446 4.724-39.446 4.723-42.137 2.151-44.134-1.207-45.031-5.105-47.474-15.728-40.844-26.32-30.221-28.763-28.733-29.105-27.244-29.27-25.78-29.27-16.789-29.27-8.664-23.088-6.563-13.953-6.373-13.126-6.239-12.298-6.157-11.475H-6.156V-11.47C-6.133-11.23-6.115-10.99-6.099-10.751-5.774-8.736-4.148-6.191-3.809-5.676-3.098-4.612-1.474-2.201 .004-.008Z" fill="#9d6824"/>
<path transform="matrix(1,0,0,-1,99.36949,132.60254)" d="M0 0C0-2.003-.302-3.937-.862-5.759-1.048-4.828-1.499-4.137-2.097-3.611-4.376-1.605-8.128-3.299-8.43-3.477-9.249-3.796-11.606-4.847-15.748-5.014-21.458-5.245-25.201-3.586-28.553 .65-30.351 2.922-31.539 5.024-31.495 7.751-31.431 11.8-28.538 16.742-19.64 18.676-15.847 19.5-13.131 18.934-9.778 16.979-3.935 13.572 0 7.237 0 0" fill="#9d6824"/>
<path transform="matrix(1,0,0,-1,79.7292,152.24286)" d="M0 0C-10.83 0-19.64 8.811-19.64 19.64-19.64 30.47-10.83 39.28 0 39.28 .454 39.28 .903 39.264 1.349 39.233-3.67 38.584-7.435 37.107-9.862 34.831-11.939 32.883-13.017 30.394-13.064 27.436-13.109 24.595-12.105 21.73-10.237 19.369-5.928 13.922-.201 12.978 3.842 13.144 8.209 13.324 11.611 14.808 11.645 14.823L11.671 14.837C11.709 14.859 15.756 16.633 17.241 15.636 18.217 14.981 18.384 13.685 18.393 12.753 15.597 5.311 8.407 0 0 0" fill="#f9bd32"/>
<path transform="matrix(1,0,0,-1,79.729297,105.2254)" d="M0 0C11.894 0 22.035-7.626 25.805-18.244 40.185 3.046 78.578 59.21 88.686 72.77 88.686 72.77 81.888 77.061 69.467 76.774 54.533 76.429 43.695 46.344 35.954 31.936 35.954 31.936 44.153 59.949 52.203 80.523 52.203 80.523 18.364 87.133 17.134 30.271 17.134 30.271 15.087 57.405 15.325 73.967 15.325 73.967-14.007 65.725-1.238 18.984-1.238 18.984-11.957 40.641-16.164 49.267-16.164 49.267-39.723 26.314-15.313-4.694-10.94-1.732-5.668 0 0 0" fill="#f9bd32"/>
</g>
</g>
</g>
</svg>
